<mxfile host="app.diagrams.net" modified="2020-11-03T02:49:12.048Z" agent="5.0 (Windows NT 10.0; Win64; x64) AppleWebKit/537.36 (KHTML, like Gecko) Chrome/86.0.4240.111 Safari/537.36" etag="oQwTHPeybgNrunsY23sb" version="13.8.8" type="github">
  <diagram id="5fkF0SvjLoAkscsR0oqF" name="Page-1">
    <mxGraphModel dx="1038" dy="548" grid="1" gridSize="10" guides="1" tooltips="1" connect="1" arrows="1" fold="1" page="1" pageScale="1" pageWidth="850" pageHeight="1100" math="0" shadow="0">
      <root>
        <mxCell id="0" />
        <mxCell id="1" parent="0" />
        <mxCell id="197XNl4iIS1HHGoHXW-u-3" value="" style="edgeStyle=orthogonalEdgeStyle;rounded=0;orthogonalLoop=1;jettySize=auto;html=1;" edge="1" parent="1" source="197XNl4iIS1HHGoHXW-u-1" target="197XNl4iIS1HHGoHXW-u-2">
          <mxGeometry relative="1" as="geometry" />
        </mxCell>
        <mxCell id="197XNl4iIS1HHGoHXW-u-1" value="Material App" style="rounded=1;whiteSpace=wrap;html=1;" vertex="1" parent="1">
          <mxGeometry x="365" y="70" width="120" height="70" as="geometry" />
        </mxCell>
        <mxCell id="197XNl4iIS1HHGoHXW-u-5" value="" style="edgeStyle=orthogonalEdgeStyle;rounded=0;orthogonalLoop=1;jettySize=auto;html=1;" edge="1" parent="1" source="197XNl4iIS1HHGoHXW-u-2" target="197XNl4iIS1HHGoHXW-u-4">
          <mxGeometry relative="1" as="geometry" />
        </mxCell>
        <mxCell id="197XNl4iIS1HHGoHXW-u-7" value="" style="edgeStyle=orthogonalEdgeStyle;rounded=0;orthogonalLoop=1;jettySize=auto;html=1;" edge="1" parent="1" source="197XNl4iIS1HHGoHXW-u-2" target="197XNl4iIS1HHGoHXW-u-6">
          <mxGeometry relative="1" as="geometry" />
        </mxCell>
        <mxCell id="197XNl4iIS1HHGoHXW-u-9" value="" style="edgeStyle=orthogonalEdgeStyle;rounded=0;orthogonalLoop=1;jettySize=auto;html=1;" edge="1" parent="1" source="197XNl4iIS1HHGoHXW-u-2" target="197XNl4iIS1HHGoHXW-u-8">
          <mxGeometry relative="1" as="geometry" />
        </mxCell>
        <mxCell id="197XNl4iIS1HHGoHXW-u-2" value="Scaffold&lt;br&gt;" style="whiteSpace=wrap;html=1;rounded=1;" vertex="1" parent="1">
          <mxGeometry x="365" y="225" width="120" height="60" as="geometry" />
        </mxCell>
        <mxCell id="197XNl4iIS1HHGoHXW-u-15" value="" style="edgeStyle=orthogonalEdgeStyle;rounded=0;orthogonalLoop=1;jettySize=auto;html=1;" edge="1" parent="1" source="197XNl4iIS1HHGoHXW-u-4" target="197XNl4iIS1HHGoHXW-u-14">
          <mxGeometry relative="1" as="geometry" />
        </mxCell>
        <mxCell id="197XNl4iIS1HHGoHXW-u-17" value="" style="edgeStyle=orthogonalEdgeStyle;rounded=0;orthogonalLoop=1;jettySize=auto;html=1;" edge="1" parent="1" source="197XNl4iIS1HHGoHXW-u-4" target="197XNl4iIS1HHGoHXW-u-16">
          <mxGeometry relative="1" as="geometry" />
        </mxCell>
        <mxCell id="197XNl4iIS1HHGoHXW-u-4" value="AppBar&lt;br&gt;" style="whiteSpace=wrap;html=1;rounded=1;" vertex="1" parent="1">
          <mxGeometry x="365" y="365" width="120" height="60" as="geometry" />
        </mxCell>
        <mxCell id="197XNl4iIS1HHGoHXW-u-11" value="" style="edgeStyle=orthogonalEdgeStyle;rounded=0;orthogonalLoop=1;jettySize=auto;html=1;" edge="1" parent="1" source="197XNl4iIS1HHGoHXW-u-6" target="197XNl4iIS1HHGoHXW-u-10">
          <mxGeometry relative="1" as="geometry" />
        </mxCell>
        <mxCell id="197XNl4iIS1HHGoHXW-u-6" value="Center&lt;br&gt;" style="whiteSpace=wrap;html=1;rounded=1;" vertex="1" parent="1">
          <mxGeometry x="565" y="225" width="120" height="60" as="geometry" />
        </mxCell>
        <mxCell id="197XNl4iIS1HHGoHXW-u-8" value="background&amp;nbsp;" style="whiteSpace=wrap;html=1;rounded=1;" vertex="1" parent="1">
          <mxGeometry x="165" y="225" width="120" height="60" as="geometry" />
        </mxCell>
        <mxCell id="197XNl4iIS1HHGoHXW-u-13" value="" style="edgeStyle=orthogonalEdgeStyle;rounded=0;orthogonalLoop=1;jettySize=auto;html=1;" edge="1" parent="1" source="197XNl4iIS1HHGoHXW-u-10" target="197XNl4iIS1HHGoHXW-u-12">
          <mxGeometry relative="1" as="geometry" />
        </mxCell>
        <mxCell id="197XNl4iIS1HHGoHXW-u-10" value="Image&lt;br&gt;" style="whiteSpace=wrap;html=1;rounded=1;" vertex="1" parent="1">
          <mxGeometry x="565" y="365" width="120" height="60" as="geometry" />
        </mxCell>
        <mxCell id="197XNl4iIS1HHGoHXW-u-12" value="NetworkImage&lt;br&gt;" style="whiteSpace=wrap;html=1;rounded=1;" vertex="1" parent="1">
          <mxGeometry x="565" y="505" width="120" height="60" as="geometry" />
        </mxCell>
        <mxCell id="197XNl4iIS1HHGoHXW-u-14" value="Text&lt;br&gt;" style="whiteSpace=wrap;html=1;rounded=1;" vertex="1" parent="1">
          <mxGeometry x="365" y="505" width="120" height="60" as="geometry" />
        </mxCell>
        <mxCell id="197XNl4iIS1HHGoHXW-u-16" value="background" style="whiteSpace=wrap;html=1;rounded=1;" vertex="1" parent="1">
          <mxGeometry x="230" y="505" width="120" height="60" as="geometry" />
        </mxCell>
      </root>
    </mxGraphModel>
  </diagram>
</mxfile>
